<?xml version="1.0" encoding="utf-8"?>
<!-- Generator: Adobe Illustrator 22.0.1, SVG Export Plug-In . SVG Version: 6.00 Build 0)  -->
<svg version="1.1" id="Слой_1" xmlns="http://www.w3.org/2000/svg" xmlns:xlink="http://www.w3.org/1999/xlink" x="0px" y="0px"
	 viewBox="0 0 129 27.4" style="enable-background:new 0 0 129 27.4;" xml:space="preserve">
<style type="text/css">
	.st0{fill:#EB1C24;}
	.st1{fill:#231F20;}
</style>
<g>
	<polygon class="st0" points="14.3,0.5 17.5,10.3 28,10.5 19.8,16.5 22.8,26.6 14.3,20.3 5.9,26.6 8.6,16.5 0.6,10.5 10.9,10.2 	"/>
	<path class="st1" d="M45.4,26.7v-2.5c-1.4,2-3.3,2.9-5.6,2.9c-1.1,0-2-0.2-2.9-0.6c-0.9-0.4-1.6-0.9-2-1.5
		c-0.4-0.6-0.8-1.3-0.9-2.2c-0.1-0.6-0.2-1.5-0.2-2.7V9.4h3V19c0,1.5,0.1,2.6,0.2,3.1c0.2,0.8,0.6,1.4,1.2,1.8s1.4,0.7,2.3,0.7
		c0.9,0,1.8-0.2,2.5-0.7c0.8-0.5,1.4-1.1,1.7-1.8c0.3-0.8,0.5-1.9,0.5-3.4V9.4h3v17.3H45.4z"/>
	<path class="st1" d="M51.6,21.5l3-0.5c0.2,1.2,0.6,2.1,1.4,2.7c0.8,0.6,1.8,0.9,3.2,0.9c1.4,0,2.4-0.3,3.1-0.8c0.7-0.5,1-1.2,1-1.9
		c0-0.7-0.3-1.2-0.9-1.6c-0.4-0.3-1.4-0.6-3.1-1c-2.2-0.5-3.7-1-4.6-1.4c-0.9-0.4-1.5-0.9-1.9-1.6c-0.4-0.7-0.7-1.5-0.7-2.3
		c0-0.8,0.2-1.5,0.5-2.1c0.4-0.7,0.9-1.2,1.5-1.6c0.5-0.3,1.1-0.6,1.9-0.9C56.9,9.1,57.7,9,58.7,9c1.4,0,2.6,0.2,3.7,0.6
		c1.1,0.4,1.8,0.9,2.3,1.6c0.5,0.7,0.8,1.6,1,2.7l-2.9,0.4c-0.1-0.9-0.5-1.6-1.2-2.1c-0.6-0.5-1.6-0.8-2.7-0.8c-1.4,0-2.4,0.2-3,0.7
		c-0.6,0.4-0.9,1-0.9,1.6c0,0.4,0.1,0.7,0.4,1c0.2,0.3,0.6,0.6,1.2,0.8c0.3,0.1,1.2,0.4,2.7,0.8c2.1,0.6,3.6,1,4.5,1.4
		c0.8,0.4,1.5,0.9,2,1.5c0.5,0.7,0.7,1.5,0.7,2.5c0,1-0.3,1.9-0.9,2.8c-0.6,0.9-1.4,1.5-2.5,2c-1.1,0.5-2.4,0.7-3.8,0.7
		c-2.3,0-4.1-0.5-5.3-1.4C52.7,24.7,52,23.4,51.6,21.5z"/>
	<path class="st0" d="M70,26.7V9.4h2.7v2.4c0.6-0.8,1.3-1.5,2.2-2c0.9-0.5,2-0.8,3.2-0.8c1.3,0,2.4,0.3,3.2,0.8
		c0.8,0.5,1.4,1.3,1.8,2.2c1.4-2,3.2-3,5.5-3c1.8,0,3.1,0.5,4.1,1.4c0.9,1,1.4,2.4,1.4,4.4v11.9h-3V15.8c0-1.2-0.1-2-0.3-2.5
		c-0.2-0.5-0.6-0.9-1.1-1.2c-0.5-0.3-1.1-0.5-1.8-0.5c-1.3,0-2.3,0.4-3.1,1.2c-0.8,0.8-1.2,2.1-1.2,3.9v10.1h-3V15.4
		c0-1.3-0.2-2.3-0.7-2.9c-0.5-0.7-1.3-1-2.4-1c-0.8,0-1.6,0.2-2.4,0.7c-0.7,0.4-1.2,1.1-1.6,1.9c-0.3,0.8-0.5,2-0.5,3.6v9H70z"/>
	<path class="st0" d="M110.2,24.5c-1.1,0.9-2.2,1.6-3.2,2c-1,0.4-2.1,0.6-3.3,0.6c-2,0-3.5-0.5-4.5-1.4c-1.1-0.9-1.6-2.1-1.6-3.6
		c0-0.8,0.2-1.6,0.6-2.3c0.4-0.7,0.9-1.3,1.6-1.7c0.6-0.4,1.4-0.7,2.2-1c0.6-0.2,1.5-0.3,2.7-0.4c2.4-0.3,4.2-0.6,5.4-1
		c0-0.4,0-0.7,0-0.8c0-1.2-0.3-2-0.9-2.5c-0.8-0.7-1.9-1-3.4-1c-1.4,0-2.5,0.2-3.1,0.7c-0.7,0.5-1.2,1.3-1.5,2.6l-2.9-0.4
		c0.3-1.2,0.7-2.2,1.3-3c0.6-0.8,1.5-1.3,2.7-1.7c1.2-0.4,2.5-0.6,4-0.6c1.5,0,2.8,0.2,3.7,0.5c0.9,0.3,1.6,0.8,2.1,1.3
		c0.4,0.5,0.8,1.2,0.9,2c0.1,0.5,0.2,1.4,0.2,2.7v3.9c0,2.7,0.1,4.5,0.2,5.2c0.1,0.7,0.4,1.4,0.8,2.1h-3.2
		C110.5,26.1,110.3,25.4,110.2,24.5z M109.9,18c-1.1,0.4-2.7,0.8-4.9,1.1c-1.2,0.2-2.1,0.4-2.6,0.6c-0.5,0.2-0.9,0.5-1.2,1
		c-0.3,0.4-0.4,0.9-0.4,1.4c0,0.8,0.3,1.4,0.9,2c0.6,0.5,1.5,0.8,2.7,0.8c1.2,0,2.2-0.2,3.1-0.7c0.9-0.5,1.6-1.2,2-2
		c0.3-0.7,0.5-1.6,0.5-2.9V18z"/>
	<path class="st0" d="M117.6,26.7V2.8h3v23.9H117.6z"/>
	<path class="st0" d="M125.2,26.7V2.8h3v23.9H125.2z"/>
</g>
</svg>
